<?xml version="1.0" encoding="UTF-8" standalone="no"?>
<!-- Created with Inkscape (http://www.inkscape.org/) -->

<svg
   width="135.46666mm"
   height="135.46666mm"
   viewBox="0 0 135.46665 135.46666"
   version="1.1"
   id="svg1"
   inkscape:version="1.4.2 (2aeb623e1d, 2025-05-12)"
   sodipodi:docname="icon.svg"
   xmlns:inkscape="http://www.inkscape.org/namespaces/inkscape"
   xmlns:sodipodi="http://sodipodi.sourceforge.net/DTD/sodipodi-0.dtd"
   xmlns="http://www.w3.org/2000/svg"
   xmlns:svg="http://www.w3.org/2000/svg">
  <sodipodi:namedview
     id="namedview1"
     pagecolor="#ffffff"
     bordercolor="#000000"
     borderopacity="0.25"
     inkscape:showpageshadow="2"
     inkscape:pageopacity="0.0"
     inkscape:pagecheckerboard="0"
     inkscape:deskcolor="#d1d1d1"
     inkscape:document-units="mm"
     inkscape:zoom="0.89170156"
     inkscape:cx="411.01196"
     inkscape:cy="351.0143"
     inkscape:window-width="1872"
     inkscape:window-height="1011"
     inkscape:window-x="0"
     inkscape:window-y="0"
     inkscape:window-maximized="1"
     inkscape:current-layer="svg1" />
  <defs
     id="defs1">
    <rect
       x="547.89648"
       y="336.75592"
       width="221.83127"
       height="255.23959"
       id="rect2" />
    <rect
       x="66.81665"
       y="241.87627"
       width="344.7739"
       height="356.8009"
       id="rect1" />
  </defs>
  <path
     id="path6"
     d="m 130.83431,73.541279 c 1.20906,1.873777 1.78754,3.970326 1.78754,6.045314 0,3.754741 -1.89354,7.435829 -5.35006,9.543145 -3.34872,2.04265 -5.33748,5.669839 -5.33748,9.521597 0,0.459901 0.0323,0.919818 0.0845,1.390495 0.0647,0.4707 0.0862,0.9414 0.0862,1.4013 0,5.65007 -4.27932,10.51686 -10.05695,11.09535 -2.18099,0.21378 -4.20387,1.06894 -5.8513,2.38579 -1.64741,1.31506 -2.92114,3.09183 -3.61639,5.17759 -1.57198,4.67456 -5.92676,7.60648 -10.581567,7.60648 -1.271927,0 -2.567233,-0.21377 -3.828392,-0.67369 -0.621601,-0.22455 -1.252174,-0.39524 -1.89354,-0.50302 -0.643148,-0.11854 -1.284513,-0.17067 -1.925879,-0.17067 -2.953484,0 -5.853083,1.17673 -7.992738,3.37028 -2.182786,2.24566 -5.091361,3.36849 -7.990959,3.36849 -2.899593,0 -5.809966,-1.12283 -7.992746,-3.36849 -2.139662,-2.19355 -5.03926,-3.37028 -7.990954,-3.37028 -1.284516,0 -2.578014,0.22456 -3.819412,0.67369 -1.26296,0.45992 -2.556459,0.67369 -3.8302,0.67369 -4.654798,0 -9.007783,-2.93192 -10.581541,-7.60648 -0.695256,-2.08576 -1.967196,-3.86253 -3.614612,-5.17759 -1.649211,-1.31685 -3.670305,-2.17201 -5.853084,-2.38579 -5.777631,-0.57849 -10.056957,-5.44528 -10.056957,-11.09535 0,-0.4599 0.02156,-0.9306 0.08624,-1.4013 0.0539,-0.470677 0.08624,-0.930594 0.08624,-1.390495 0,-3.851758 -1.990553,-7.478947 -5.3392786,-9.521597 C 6.0062685,87.022422 4.110933,83.341334 4.110933,79.586593 c 0,-2.074988 0.5784815,-4.171537 1.7875439,-6.045314 1.1982839,-1.850422 1.7857482,-3.94697 1.7857482,-6.065076 0,-2.096548 -0.5874643,-4.214654 -1.7857482,-6.056092 C 4.6894145,59.548133 4.110933,57.451584 4.110933,55.376598 c 0,-3.756541 1.8953355,-7.425048 5.3500574,-9.532374 3.3487256,-2.044447 5.3392786,-5.680617 5.3392786,-9.53237 0,-0.459912 -0.03234,-0.919823 -0.08624,-1.390512 -0.06468,-0.470691 -0.08624,-0.941381 -0.08624,-1.403089 0,-5.648279 4.279326,-10.515071 10.056957,-11.093553 2.182779,-0.224566 4.203873,-1.068932 5.853084,-2.385788 1.647416,-1.304278 2.919356,-3.081043 3.614612,-5.166811 1.573758,-4.676359 5.937522,-7.6172733 10.592322,-7.6172733 1.273736,0 2.556459,0.2137873 3.819419,0.6736975 1.241398,0.4599114 2.534896,0.6736987 3.819412,0.6736987 2.951694,0 5.851292,-1.1767256 7.990954,-3.3702845 2.18278,-2.2456608 5.093153,-3.3702858 7.992746,-3.3702858 2.899598,0 5.808173,1.124625 7.990959,3.3702858 3.070256,3.1457187 7.692724,4.2056692 11.812157,2.6965858 1.261159,-0.4599102 2.545685,-0.6736975 3.819419,-0.6736975 4.653001,0 9.01856,2.9409143 10.59054,7.6172733 0.69525,2.085768 1.96898,3.862533 3.61639,5.166811 1.64743,1.316856 3.67031,2.161222 5.8513,2.385788 5.77763,0.578482 10.05695,5.445274 10.05695,11.093553 0,0.461708 -0.0215,0.932398 -0.0862,1.403089 -0.0521,0.470689 -0.0845,0.9306 -0.0845,1.390512 0,3.851753 1.98876,7.487923 5.33748,9.53237 3.45652,2.107326 5.35006,5.775833 5.35006,9.532374 0,2.074986 -0.57848,4.171535 -1.78754,6.043513 -1.19829,1.841438 -1.78575,3.959544 -1.78575,6.056092 0,1.165947 0.18145,2.331894 0.54615,3.454723 0.28744,0.910837 0.70603,1.787544 1.2396,2.610353"
     style="fill:#42be45;fill-opacity:1;fill-rule:nonzero;stroke:none;stroke-width:0.0179652" />
  <g
     id="g2">
    <path
       id="path8"
       d="M 94.85246,15.229496 C 87.001177,13.377319 83.780155,18.58519 81.839726,23.526224 L 46.539201,91.370409 38.602996,66.832256 c -3.005403,-9.292482 -7.564958,-10.118347 -11.270451,-8.974289 -4.409413,1.234404 -5.533925,6.92176 -3.15433,13.716109 l 11.73425,37.406124 c 3.271243,6.75316 7.044828,7.0499 9.126435,7.0499 2.079506,0 7.426476,-2.11779 10.250004,-7.85366 0,0 34.363208,-65.955248 40.87312,-77.917682 C 102.67195,18.296324 94.85246,15.229496 94.85246,15.229496 Z"
       style="display:inline;fill:#ffffff;fill-opacity:1;fill-rule:nonzero;stroke:none;stroke-width:0.021005"
       sodipodi:nodetypes="cccscccsczc" />
    <path
       style="fill:#ffffff;fill-opacity:1;stroke:none;stroke-width:0.239671;stroke-opacity:1"
       d="m 73.278982,83.523216 c 6.802871,-4.654595 10.02528,2.148274 10.02528,2.148274 l 11.994535,19.33447 c 0,0 2.74503,5.7341 -1.790227,9.66722 -4.470631,3.87708 -11.099422,-1.43217 -11.099422,-1.43217 L 71.309728,93.727522 c 0,0 -4.833616,-5.549711 1.969254,-10.204306 z"
       id="path2"
       sodipodi:nodetypes="zccsccz" />
  </g>
</svg>
